# xmcd CD database file
#
# Track frame offsets:
#	150
#	15495
#	27359
#	29543
#	47545
#	64602
#	66410
#	81108
#	84867
#	88767
#	104364
#	106909
#	120118
#	136468
#	137713
#
# Disc length: 2015 seconds
#
# Revision: 0
# Processed by: cddbd v1.5.2PL0 Copyright (c) Steve Scherf et al.
# Submitted via: CDex 1.70beta2
#
DISCID=ba07dd0f
DTITLE=戟 - AAR
DYEAR=02
DGENRE=Blues
TTITLE0=balloon
TTITLE1=bad boy
TTITLE2=organ organ no.3
TTITLE3=jane and jenny
TTITLE4=bad apology
TTITLE5=door door
TTITLE6=rock guitar
TTITLE7=bingo bingo
TTITLE8=oopla hopla
TTITLE9=chill pill
TTITLE10=organ organ no.4
TTITLE11=even together
TTITLE12=3+4
TTITLE13=ami ami
TTITLE14=sofather
EXTD=YEAR: 02
EXTT0=
EXTT1=
EXTT2=
EXTT3=
EXTT4=
EXTT5=
EXTT6=
EXTT7=
EXTT8=
EXTT9=
EXTT10=
EXTT11=
EXTT12=
EXTT13=
EXTT14=
PLAYORDER=
